#!OML:ASF Y:\EmotionMaleHayes\Project 1\Capture day 1\Session 1\Male1.ASF
:FULLY-SPECIFIED
:DEGREES
49
root 0.880209 17.2345 -0.655232 306.779 71.6003 306.088
lowerback 12.2721 9.43406 11.0428
upperback 1.91249 14.043 0.0342634
thorax -2.11082 6.99075 -7.59512
lowerneck -21.8464 -5.21068 -1.73741
upperneck 27.8961 -8.54592 6.61168
head 13.4672 -2.80035 1.39632
rclavicle -4.96962e-015 -2.8625e-014
rhumerus -14.6264 24.2247 -88.0305
rradius 96.5883
rwrist -16.1053
rhand -30.2096 -22.0233
rfingers 7.12502
rthumb -3.51988 -51.974
lclavicle -4.96962e-015 -2.8625e-014
lhumerus -94.5702 -23.3806 88.7691
lradius 74.1229
lwrist 15.763
lhand -38.3072 -33.7944
lfingers 7.12502
lthumb -11.3355 -4.12072
rfemur 30.55 6.59898 27.6221
rtibia 25.124
rfoot -16.4237 -2.64187
rtoes 6.74137
lfemur -27.0795 11.3429 4.22755
ltibia 12.8662
lfoot -11.0977 8.86108
ltoes -1.72038
50
root 1.4641 17.1944 -0.697135 307.845 70.8835 307.136
lowerback 11.7481 9.66225 11.4826
upperback 1.74749 14.3454 0.0815058
thorax -1.85009 7.14949 -7.68117
lowerneck -22.0549 -5.25244 -2.03586
upperneck 28.439 -8.47651 6.45346
head 13.7405 -2.79676 1.40006
rclavicle -1.47101e-014 1.74931e-014
rhumerus -15.6797 25.1875 -88.5387
rradius 97.2564
rwrist -15.7322
rhand -30.4833 -22.5217
rfingers 7.12502
rthumb -3.7842 -52.4678
lclavicle -1.47101e-014 1.74931e-014
lhumerus -94.5139 -23.1877 87.2913
lradius 74.054
lwrist 15.7212
lhand -38.1611 -33.4989
lfingers 7.12502
lthumb -11.1946 -3.8176
rfemur 31.0697 8.03114 28.1874
rtibia 28.5931
rfoot -16.2981 -2.73609
rtoes 8.01919
lfemur -25.6026 9.62359 5.73549
ltibia 7.31453
lfoot -12.1298 11.2647
ltoes -4.82833
51
root 2.04377 17.1347 -0.743908 308.19 69.9934 307.426
lowerback 11.2603 9.79215 12.2361
upperback 1.55547 14.5631 0.236686
thorax -1.60535 7.26221 -7.81417
lowerneck -22.2397 -5.32468 -2.45014
upperneck 28.9891 -8.42343 6.35769
head 14.0266 -2.80627 1.44572
rclavicle -3.67752e-014 -3.26007e-014
rhumerus -16.9692 26.1021 -89.207
rradius 97.7561
rwrist -16.1075
rhand -30.2619 -22.5984
rfingers 7.12502
rthumb -3.57042 -52.5483
lclavicle -3.67752e-014 -3.26007e-014
lhumerus -94.235 -22.9216 85.9979
lradius 74.0179
lwrist 15.7129
lhand -37.9469 -32.7508
lfingers 7.12502
lthumb -10.988 -3.05833
rfemur 31.2902 9.03366 28.6852
rtibia 32.2672
rfoot -15.6481 -2.60168
rtoes 7.26297
lfemur -24.3922 7.12965 7.85822
ltibia 2.97432
lfoot -14.256 14.3806
ltoes -2.695
52
root 2.61672 17.0584 -0.79797 309.108 69.4392 308.169
lowerback 10.6395 9.8948 12.6472
upperback 1.30584 14.6753 0.275751
thorax -1.42194 7.3162 -7.872
lowerneck -22.2068 -5.33739 -2.74408
upperneck 29.4205 -8.31187 6.25476
head 14.2083 -2.78847 1.4827
rclavicle 4.75095e-014 1.98785e-014
rhumerus -18.4902 26.838 -90.1789
rradius 97.8629
rwrist -16.5449
rhand -29.2798 -22.4035
rfingers 7.12502
rthumb -2.62195 -52.3671
lclavicle 4.75095e-014 1.98785e-014
lhumerus -93.7351 -22.6563 84.8403
lradius 73.9033
lwrist 15.6536
lhand -37.72 -31.5909
lfingers 7.12502
lthumb -10.7692 -1.88695
rfemur 31.0727 9.95123 28.6106
rtibia 36.4339
rfoot -14.6913 -2.36221
rtoes 7.85854
lfemur -23.8385 5.1095 9.22805
ltibia 0.401061
lfoot -14.761 17.2785
ltoes -4.43265
53
root 3.18044 16.9659 -0.850954 310.108 69.123 309.015
lowerback 9.95314 9.92753 12.7479
upperback 1.14553 14.6415 0.322688
thorax -1.21555 7.30457 -7.74513
lowerneck -22.1757 -5.23781 -2.99715
upperneck 29.7293 -8.05681 6.18587
head 14.3294 -2.70671 1.55256
rclavicle 8.34896e-014 7.95139e-016
rhumerus -20.2205 27.4555 -91.2203
rradius 97.7851
rwrist -17.0515
rhand -28.2933 -22.3514
rfingers 7.12502
rthumb -1.66916 -52.3246
lclavicle 8.34896e-014 7.95139e-016
lhumerus -92.8809 -22.2268 83.77
lradius 73.7727
lwrist 15.4556
lhand -37.6475 -30.3501
lfingers 7.12502
lthumb -10.6993 -0.642536
rfemur 30.5659 11.0985 28.707
rtibia 41.4927
rfoot -15.1698 -1.79521
rtoes 9.95364
lfemur -23.7757 3.73251 10.0228
ltibia -0.603163
lfoot -16.329 19.0029
ltoes -2.99349
54
root 3.72636 16.8574 -0.887507 308.523 67.9841 307.58
lowerback 9.80579 9.70497 13.7815
upperback 1.11551 14.4676 0.902326
thorax -1.11388 7.21852 -7.63525
lowerneck -22.5463 -5.126 -3.40703
upperneck 30.1592 -7.70126 6.02192
head 14.5877 -2.60747 1.62448
rclavicle -6.32135e-014 4.37326e-014
rhumerus -22.2213 28.1602 -92.1954
rradius 97.5271
rwrist -17.2105
rhand -27.8245 -22.5798
rfingers 7.12502
rthumb -1.21646 -52.5561
lclavicle -6.32135e-014 4.37326e-014
lhumerus -91.8937 -21.4845 83.0614
lradius 73.8417
lwrist 15.3134
lhand -37.6083 -29.712
lfingers 7.12502
lthumb -10.6614 -0.00249846
rfemur 30.0698 12.2166 30.8762
rtibia 46.8288
rfoot -14.9916 -3.01647
rtoes 7.57963
lfemur -24.0613 5.29088 11.0495
ltibia 1.16593
lfoot -17.3124 18.1709
ltoes -1.37553
55
root 4.26462 16.7401 -0.922545 306.646 66.8241 306.143
lowerback 10.0687 9.30653 14.8168
upperback 1.14658 14.1343 1.57154
thorax -1.23488 7.04105 -7.51753
lowerneck -23.0373 -4.94509 -3.62277
upperneck 30.5671 -7.23827 5.63737
head 14.8368 -2.47629 1.59202
rclavicle -5.36719e-015 -1.11319e-014
rhumerus -24.3972 28.9198 -93.3044
rradius 96.8502
rwrist -16.9151
rhand -27.3317 -22.5801
rfingers 7.12502
rthumb -0.740409 -52.5585
lclavicle -5.36719e-015 -1.11319e-014
lhumerus -90.8616 -20.6452 82.7011
lradius 73.9609
lwrist 15.4131
lhand -37.5298 -29.2308
lfingers 7.12502
lthumb -10.5857 0.482614
rfemur 29.8999 12.6273 32.3019
rtibia 51.9026
rfoot -14.6212 -3.22323
rtoes 5.53299
lfemur -24.0368 6.01735 12.2865
ltibia 2.97715
lfoot -16.7052 18.6919
ltoes -2.68593
56
root 4.80549 16.61 -0.96755 306.363 66.8224 306.341
lowerback 10.2021 8.90001 14.7194
upperback 1.22604 13.6142 1.76229
thorax -1.41153 6.77323 -7.30182
lowerneck -23.4044 -4.64709 -3.41113
upperneck 30.7226 -6.73992 5.18745
head 14.9235 -2.30155 1.46453
rclavicle 4.57205e-015 -8.26944e-014
rhumerus -26.6425 29.3441 -94.5919
rradius 95.9552
rwrist -16.9635
rhand -26.7274 -22.6437
rfingers 7.12502
rthumb -0.156813 -52.6234
lclavicle 4.57205e-015 -8.26944e-014
lhumerus -89.5043 -20.1048 82.4283
lradius 73.9219
lwrist 15.6043
lhand -37.293 -28.6429
lfingers 7.12502
lthumb -10.3573 1.08203
rfemur 29.5979 12.9248 32.1862
rtibia 56.9146
rfoot -14.0304 -3.39435
rtoes 6.0079
lfemur -24.0683 7.06526 11.4296
ltibia 5.85656
lfoot -15.9332 17.6256
ltoes -2.25726
57
root 5.34082 16.4627 -1.00899 305.641 67.0783 306.138
lowerback 10.4225 8.39623 14.5965
upperback 1.31373 12.971 1.84343
thorax -1.62794 6.44222 -7.19406
lowerneck -23.6978 -4.30125 -3.07513
upperneck 30.7132 -6.25872 4.85053
head 14.9254 -2.10912 1.35799
rclavicle -4.09496e-014 -1.98785e-014
rhumerus -29.0035 29.3665 -96.0178
rradius 94.9559
rwrist -17.3083
rhand -26.2547 -23.5032
rfingers 7.12502
rthumb 0.299771 -53.4827
lclavicle -4.09496e-014 -1.98785e-014
lhumerus -87.9205 -19.8956 82.2688
lradius 73.9162
lwrist 15.6268
lhand -36.9203 -27.9299
lfingers 7.12502
lthumb -9.99777 1.81266
rfemur 29.2527 12.8789 31.8305
rtibia 61.8441
rfoot -14.3221 -3.94072
rtoes 3.92902
lfemur -24.2387 8.56407 10.1909
ltibia 8.88396
lfoot -13.7116 15.8499
ltoes -2.70134
58
root 5.87035 16.3067 -1.04464 304.941 67.3673 306.12
lowerback 10.8648 7.87756 14.3434
upperback 1.3247 12.3393 1.94778
thorax -2.07524 6.0955 -7.03798
lowerneck -23.611 -3.91966 -2.78776
upperneck 30.6476 -5.7214 4.57633
head 14.8244 -1.89396 1.30173
rclavicle -2.94201e-014 -4.53229e-014
rhumerus -31.6085 29.1378 -97.5026
rradius 93.7207
rwrist -17.6559
rhand -25.9529 -24.3391
rfingers 7.12502
rthumb 0.591213 -54.318
lclavicle -2.94201e-014 -4.53229e-014
lhumerus -86.5259 -19.8008 82.3362
lradius 74.0632
lwrist 15.3458
lhand -36.4222 -27.0052
lfingers 7.12502
lthumb -9.51715 2.75991
rfemur 28.8992 12.7425 31.3628
rtibia 66.7567
rfoot -14.3061 -4.05571
rtoes 9.43242
lfemur -24.2229 10.3652 8.93649
ltibia 11.9011
lfoot -10.2789 13.6433
ltoes -3.79127
59
root 6.39668 16.1438 -1.07743 304.769 68.1656 306.769
lowerback 11.376 7.34382 13.428
upperback 1.33768 11.6079 1.96741
thorax -2.68144 5.69295 -6.62597
lowerneck -23.268 -3.5146 -2.54443
upperneck 30.4558 -5.12797 4.30024
head 14.614 -1.66598 1.26305
rclavicle -3.3694e-014 -1.51076e-014
rhumerus -34.1966 28.5664 -98.8631
rradius 92.0593
rwrist -17.5666
rhand -25.5559 -24.9273
rfingers 7.12502
rthumb 0.974695 -54.9048
lclavicle -3.3694e-014 -1.51076e-014
lhumerus -85.1307 -19.7737 82.6147
lradius 74.1241
lwrist 14.8177
lhand -35.8307 -26.4324
lfingers 7.12502
lthumb -8.9464 3.3579
rfemur 28.5551 12.4913 30.2711
rtibia 71.4301
rfoot -14.7178 -5.9597
rtoes 3.57582
lfemur -23.8458 10.7349 7.69017
ltibia 13.4813
lfoot -3.28905 15.4843
ltoes 7.75063
60
root 6.87042 15.9647 -1.09335 303.06 69.5869 305.714
lowerback 12.2751 6.49298 12.1375
upperback 1.21904 10.4671 1.99517
thorax -3.76551 5.05629 -6.02793
lowerneck -22.7207 -3.07327 -2.53634
upperneck 29.9667 -4.47023 4.26135
head 14.2457 -1.41238 1.36825
rclavicle 3.70733e-014 -6.36111e-015
rhumerus -36.5389 27.6015 -100.062
rradius 89.8108
rwrist -16.8755
rhand -25.2668 -25.26
rfingers 7.12502
rthumb 1.25388 -55.2361
lclavicle 3.70733e-014 -6.36111e-015
lhumerus -83.4666 -19.7245 83.0408
lradius 73.9753
lwrist 14.0777
lhand -35.3547 -26.4781
lfingers 7.12502
lthumb -8.48707 3.33134
rfemur 27.9423 11.3353 29.0053
rtibia 75.765
rfoot -14.6952 -6.69557
rtoes 3.74285
lfemur -25.8557 13.347 5.4541
ltibia 18.2389
lfoot 6.81831 13.8777
ltoes 26.2595
61
root 7.31478 15.7963 -1.10312 302.21 71.5446 305.635
lowerback 13.4856 5.67591 10.1422
upperback 1.1774 9.25774 1.84658
thorax -4.97954 4.40554 -5.19709
lowerneck -22.1705 -2.58436 -2.49522
upperneck 29.4244 -3.7601 4.22096
head 13.8571 -1.13011 1.47058
rclavicle 7.61345e-014 9.54166e-015
rhumerus -38.3589 26.3625 -100.976
rradius 87.0435
rwrist -16.2807
rhand -25.8414 -25.0138
rfingers 7.12502
rthumb 0.698939 -54.9924
lclavicle 7.61345e-014 9.54166e-015
lhumerus -81.2548 -19.5689 83.4523
lradius 73.5422
lwrist 13.2478
lhand -35.0568 -27.1235
lfingers 7.12502
lthumb -8.19961 2.69737
rfemur 27.0031 10.1625 26.8875
rtibia 80.9928
rfoot -7.95049 21.6805
rtoes 11.6193
lfemur -29.2558 14.6871 2.25936
ltibia 26.5328
lfoot 4.79762 9.13191
ltoes 14.6104
